# xmcd
#
# Track frame offsets:
#	150
#	11706
#	25162
#	37985
#	50896
#	64410
#	77643
#	89358
#	101499
#	112039
#	123062
#	136056
#	146838
#	162551
#	174400
#	187553
#	198296
#
# Disc length: 2836 seconds
#
# Revision: 1
# Processed by: cddbd v1.5.2PL0 Copyright (c) Steve Scherf et al.
# Submitted via: EZCDAudioConverter 7.1.5.1
#
DISCID=e10b1211
DTITLE=Various Artist - '60s Country - Sweet Dreams
DYEAR=2018
DGENRE=Country
TTITLE0=Hank Snow -  I’ve Been Everywhere
TTITLE1=Johnny Cash -  Tennessee Flat-Top Box
TTITLE2=Johnny Horton -  North to Alaska
TTITLE3=Marty Robbins - Devil Women
TTITLE4=Claude King - Wolverton Mountain
TTITLE5=Carl Butler - Don’t Let Me Cross Over
TTITLE6=Porter Wagoner and Dolly Parton - The Last Thing on My Mind
TTITLE7=Bobby Bare - 500 Miles Away from Home
TTITLE8=Jim Reeves - He’ll Have to Go
TTITLE9=Elvis Presley - Crying in the Chapel
TTITLE10=David Houston and Tammy Wynette - My Elusive Dreams
TTITLE11=Porter Wagoner - Green, Green Grass Of Home
TTITLE12=Dolly Parton - My Blue Ridge Mountain Boy
TTITLE13=Skeeter Davis - The End of the World
TTITLE14=Freddy Weller - Games People Play
TTITLE15=Johnny Cash - In the Jailhouse Now
TTITLE16=Jimmy Dean - P.T. 109
EXTD=
EXTT0=
EXTT1=
EXTT2=
EXTT3=
EXTT4=
EXTT5=
EXTT6=
EXTT7=
EXTT8=
EXTT9=
EXTT10=
EXTT11=
EXTT12=
EXTT13=
EXTT14=
EXTT15=
EXTT16=
PLAYORDER=
